<svg xmlns="http://www.w3.org/2000/svg" xmlns:xNavLink="http://www.w3.org/1999/xNavLink" width="266.481" height="222.724" viewBox="0 0 266.481 222.724">
  <defs>
    <clipPath id="clip-path">
      <rect id="Rectangle_1" data-name="Rectangle 1" width="160.022" height="178" transform="matrix(0.952, 0.307, -0.307, 0.952, 733.196, 438.298)" stroke="#000" stroke-width="5"/>
    </clipPath>
  </defs>
  <g id="Group_11" data-name="Group 11" transform="translate(-855 -491.276)">
    <g id="Path_19" data-name="Path 19" transform="translate(855 491.276)" fill="#fff">
      <path d="M 89.8623046875 177.224609375 C 83.93325805664063 177.224609375 78.00865173339844 176.6274261474609 72.25310516357422 175.4496765136719 C 66.64510345458984 174.3021087646484 61.12890625 172.5897827148438 55.85773086547852 170.3602752685547 C 50.68167877197266 168.1709747314453 45.68920516967773 165.4611358642578 41.01895523071289 162.3059844970703 C 36.39242935180664 159.1803588867188 32.04177856445313 155.5907287597656 28.08782958984375 151.6367797851563 C 24.13388061523438 147.6828308105469 20.54425430297852 143.3321838378906 17.41863059997559 138.7056579589844 C 14.26347923278809 134.035400390625 11.55362987518311 129.0429229736328 9.36432933807373 123.8668823242188 C 7.134829521179199 118.595703125 5.422504901885986 113.0795059204102 4.274929523468018 107.4715042114258 C 3.097179651260376 101.7159576416016 2.500004768371582 95.79135131835938 2.500004768371582 89.8623046875 C 2.500004768371582 83.93325805664063 3.097179651260376 78.00865173339844 4.274929523468018 72.25310516357422 C 5.422504901885986 66.64510345458984 7.134829521179199 61.12890625 9.36432933807373 55.85773086547852 C 11.55362987518311 50.68167877197266 14.26347923278809 45.68920516967773 17.41863059997559 41.01895523071289 C 20.54425430297852 36.39242935180664 24.13388061523438 32.04177856445313 28.08782958984375 28.08782958984375 C 32.04177856445313 24.13388061523438 36.39242935180664 20.54425430297852 41.01895523071289 17.41863059997559 C 45.68920516967773 14.26347923278809 50.68167877197266 11.55362987518311 55.85773086547852 9.36432933807373 C 61.12890625 7.134829521179199 66.64510345458984 5.422504901885986 72.25310516357422 4.274929523468018 C 78.00865173339844 3.097179651260376 83.93325805664063 2.500004768371582 89.8623046875 2.500004768371582 C 95.79135131835938 2.500004768371582 101.7159576416016 3.097179651260376 107.4715042114258 4.274929523468018 C 113.0795059204102 5.422504901885986 118.595703125 7.134829521179199 123.8668823242188 9.36432933807373 C 129.0429229736328 11.55362987518311 134.035400390625 14.26347923278809 138.7056579589844 17.41863059997559 C 143.3321838378906 20.54425430297852 147.6828308105469 24.13388061523438 151.6367797851563 28.08782958984375 C 155.5907287597656 32.04177856445313 159.1803588867188 36.39242935180664 162.3059844970703 41.01895523071289 C 165.4611358642578 45.68920516967773 168.1709747314453 50.68167877197266 170.3602752685547 55.85773086547852 C 172.5897827148438 61.12890625 174.3021087646484 66.64510345458984 175.4496765136719 72.25310516357422 C 176.6274261474609 78.00865173339844 177.224609375 83.93325805664063 177.224609375 89.8623046875 C 177.224609375 96.65117645263672 176.4432983398438 103.4097518920898 174.9024505615234 109.9503021240234 C 173.4033355712891 116.3135833740234 171.1749725341797 122.5179290771484 168.2792510986328 128.3910522460938 C 165.4327239990234 134.1644592285156 161.9287109375 139.644775390625 157.8644866943359 144.6798248291016 C 153.8226013183594 149.6871795654297 149.2146606445313 154.2694091796875 144.1686553955078 158.2992095947266 C 140.4035339355469 161.3062591552734 136.4598541259766 163.9444274902344 132.1122741699219 166.3645324707031 C 119.3509521484375 173.4692840576172 104.7412033081055 177.224609375 89.8623046875 177.224609375 Z" stroke="none"/>
      <path d="M 89.8623046875 5 C 84.10124969482422 5 78.34527587890625 5.580078125 72.75430297851563 6.724166870117188 C 67.30796813964844 7.838668823242188 61.95077514648438 9.501617431640625 56.83161163330078 11.66685485839844 C 51.80422210693359 13.79324340820313 46.95494079589844 16.42538452148438 42.41847229003906 19.49018859863281 C 37.92378234863281 22.52671813964844 33.697021484375 26.01416015625 29.85557556152344 29.85557556152344 C 26.01416015625 33.697021484375 22.52671813964844 37.92378234863281 19.49018859863281 42.41847229003906 C 16.42538452148438 46.95494079589844 13.79324340820313 51.80422210693359 11.66685485839844 56.83161163330078 C 9.501617431640625 61.95077514648438 7.838668823242188 67.30796813964844 6.724166870117188 72.75430297851563 C 5.580078125 78.34527587890625 5 84.10124969482422 5 89.8623046875 C 5 95.62335968017578 5.580078125 101.3793334960938 6.724166870117188 106.9703063964844 C 7.838668823242188 112.4166412353516 9.501617431640625 117.7738037109375 11.66685485839844 122.8929977416992 C 13.79324340820313 127.9203643798828 16.42538452148438 132.7696380615234 19.49018859863281 137.3061370849609 C 22.52671813964844 141.8008117675781 26.01416015625 146.027587890625 29.85557556152344 149.8690032958984 C 33.697021484375 153.71044921875 37.92378234863281 157.1978607177734 42.41847229003906 160.2344207763672 C 46.95494079589844 163.2992248535156 51.80422210693359 165.9313659667969 56.83161163330078 168.0577545166016 C 61.9508056640625 170.2229919433594 67.30796813964844 171.8859405517578 72.75430297851563 173.0004425048828 C 78.34527587890625 174.14453125 84.10124969482422 174.724609375 89.8623046875 174.724609375 C 104.3166122436523 174.724609375 118.5058288574219 171.0784454345703 130.8963317871094 164.1801452636719 C 135.1216735839844 161.8280792236328 138.9527282714844 159.2654418945313 142.6085510253906 156.3456878662109 C 147.5128631591797 152.4290771484375 151.9911956787109 147.9757995605469 155.9191436767578 143.1095581054688 C 159.8677215576172 138.2177734375 163.2718658447266 132.893798828125 166.0370025634766 127.2855224609375 C 168.8491973876953 121.5817489624023 171.0132446289063 115.5564727783203 172.4690551757813 109.3770294189453 C 173.9657287597656 103.0241088867188 174.724609375 96.45841217041016 174.724609375 89.8623046875 C 174.724609375 84.10124969482422 174.14453125 78.34527587890625 173.0004425048828 72.75430297851563 C 171.8859405517578 67.30796813964844 170.2229919433594 61.9508056640625 168.0577545166016 56.83161163330078 C 165.9313659667969 51.80422210693359 163.2992248535156 46.95494079589844 160.2344207763672 42.41847229003906 C 157.1978607177734 37.92378234863281 153.71044921875 33.697021484375 149.8690032958984 29.85557556152344 C 146.027587890625 26.01416015625 141.8008117675781 22.52671813964844 137.3061370849609 19.49018859863281 C 132.7696380615234 16.42538452148438 127.9203643798828 13.79324340820313 122.8929977416992 11.66685485839844 C 117.7738037109375 9.501617431640625 112.4166412353516 7.838668823242188 106.9703063964844 6.724166870117188 C 101.3793334960938 5.580078125 95.62335968017578 5 89.8623046875 5 M 89.8623046875 0 C 139.4918518066406 0 179.724609375 40.23272705078125 179.724609375 89.8623046875 C 179.724609375 118.3000564575195 166.5150604248047 143.6525268554688 145.7287292480469 160.252685546875 C 141.9145202636719 163.2989196777344 137.8305053710938 166.0426635742188 133.3282165527344 168.5488891601563 C 120.6464996337891 175.6093292236328 105.7349700927734 179.724609375 89.8623046875 179.724609375 C 40.23272705078125 179.724609375 0 139.4918518066406 0 89.8623046875 C 0 40.23272705078125 40.23272705078125 0 89.8623046875 0 Z" stroke="none" fill="#000"/>
    </g>
    <line id="Line_1" data-name="Line 1" x1="54" y2="167" transform="translate(917.862 497.476)" fill="none" stroke="#000" stroke-width="5"/>
    <text id="S" transform="translate(906 585.976)" font-size="65" font-family="Montserrat-Medium, Montserrat" font-weight="500"><tspan x="-20.182" y="0">S</tspan></text>
    <g id="Mask_Group_1" data-name="Mask Group 1" transform="translate(236 57.151)" clip-path="url(#clip-path)">
      <g id="Path_20" data-name="Path 20" transform="translate(616 433.114)">
        <path d="M 89.8623046875 177.224609375 C 83.93325805664063 177.224609375 78.00865173339844 176.6274261474609 72.25310516357422 175.4496765136719 C 66.64510345458984 174.3021087646484 61.12890625 172.5897827148438 55.85773086547852 170.3602752685547 C 50.68167877197266 168.1709747314453 45.68920516967773 165.4611358642578 41.01895523071289 162.3059844970703 C 36.39242935180664 159.1803588867188 32.04177856445313 155.5907287597656 28.08782958984375 151.6367797851563 C 24.13388061523438 147.6828308105469 20.54425430297852 143.3321838378906 17.41863059997559 138.7056579589844 C 14.26347923278809 134.035400390625 11.55362987518311 129.0429229736328 9.36432933807373 123.8668823242188 C 7.134829521179199 118.595703125 5.422504901885986 113.0795059204102 4.274929523468018 107.4715042114258 C 3.097179651260376 101.7159576416016 2.500004768371582 95.79135131835938 2.500004768371582 89.8623046875 C 2.500004768371582 83.93325805664063 3.097179651260376 78.00865173339844 4.274929523468018 72.25310516357422 C 5.422504901885986 66.64510345458984 7.134829521179199 61.12890625 9.36432933807373 55.85773086547852 C 11.55362987518311 50.68167877197266 14.26347923278809 45.68920516967773 17.41863059997559 41.01895523071289 C 20.54425430297852 36.39242935180664 24.13388061523438 32.04177856445313 28.08782958984375 28.08782958984375 C 32.04177856445313 24.13388061523438 36.39242935180664 20.54425430297852 41.01895523071289 17.41863059997559 C 45.68920516967773 14.26347923278809 50.68167877197266 11.55362987518311 55.85773086547852 9.36432933807373 C 61.12890625 7.134829521179199 66.64510345458984 5.422504901885986 72.25310516357422 4.274929523468018 C 78.00865173339844 3.097179651260376 83.93325805664063 2.500004768371582 89.8623046875 2.500004768371582 C 95.79135131835938 2.500004768371582 101.7159576416016 3.097179651260376 107.4715042114258 4.274929523468018 C 113.0795059204102 5.422504901885986 118.595703125 7.134829521179199 123.8668823242188 9.36432933807373 C 129.0429229736328 11.55362987518311 134.035400390625 14.26347923278809 138.7056579589844 17.41863059997559 C 143.3321838378906 20.54425430297852 147.6828308105469 24.13388061523438 151.6367797851563 28.08782958984375 C 155.5907287597656 32.04177856445313 159.1803588867188 36.39242935180664 162.3059844970703 41.01895523071289 C 165.4611358642578 45.68920516967773 168.1709747314453 50.68167877197266 170.3602752685547 55.85773086547852 C 172.5897827148438 61.12890625 174.3021087646484 66.64510345458984 175.4496765136719 72.25310516357422 C 176.6274261474609 78.00865173339844 177.224609375 83.93325805664063 177.224609375 89.8623046875 C 177.224609375 96.65117645263672 176.4432983398438 103.4097518920898 174.9024505615234 109.9503021240234 C 173.4033355712891 116.3135833740234 171.1749725341797 122.5179290771484 168.2792510986328 128.3910522460938 C 165.4327239990234 134.1644592285156 161.9287109375 139.644775390625 157.8644866943359 144.6798248291016 C 153.8226013183594 149.6871795654297 149.2146606445313 154.2694091796875 144.1686553955078 158.2992095947266 C 140.4035339355469 161.3062591552734 136.4598541259766 163.9444274902344 132.1122741699219 166.3645324707031 C 119.3509521484375 173.4692840576172 104.7412033081055 177.224609375 89.8623046875 177.224609375 Z" stroke="none"/>
        <path d="M 89.8623046875 5 C 84.10124969482422 5 78.34527587890625 5.580078125 72.75430297851563 6.724166870117188 C 67.30796813964844 7.838668823242188 61.95077514648438 9.501617431640625 56.83161163330078 11.66685485839844 C 51.80422210693359 13.79324340820313 46.95494079589844 16.42538452148438 42.41847229003906 19.49018859863281 C 37.92378234863281 22.52671813964844 33.697021484375 26.01416015625 29.85557556152344 29.85557556152344 C 26.01416015625 33.697021484375 22.52671813964844 37.92378234863281 19.49018859863281 42.41847229003906 C 16.42538452148438 46.95494079589844 13.79324340820313 51.80422210693359 11.66685485839844 56.83161163330078 C 9.501617431640625 61.95077514648438 7.838668823242188 67.30796813964844 6.724166870117188 72.75430297851563 C 5.580078125 78.34527587890625 5 84.10124969482422 5 89.8623046875 C 5 95.62335968017578 5.580078125 101.3793334960938 6.724166870117188 106.9703063964844 C 7.838668823242188 112.4166412353516 9.501617431640625 117.7738037109375 11.66685485839844 122.8929977416992 C 13.79324340820313 127.9203643798828 16.42538452148438 132.7696380615234 19.49018859863281 137.3061370849609 C 22.52671813964844 141.8008117675781 26.01416015625 146.027587890625 29.85557556152344 149.8690032958984 C 33.697021484375 153.71044921875 37.92378234863281 157.1978607177734 42.41847229003906 160.2344207763672 C 46.95494079589844 163.2992248535156 51.80422210693359 165.9313659667969 56.83161163330078 168.0577545166016 C 61.9508056640625 170.2229919433594 67.30796813964844 171.8859405517578 72.75430297851563 173.0004425048828 C 78.34527587890625 174.14453125 84.10124969482422 174.724609375 89.8623046875 174.724609375 C 104.3166122436523 174.724609375 118.5058288574219 171.0784454345703 130.8963317871094 164.1801452636719 C 135.1216735839844 161.8280792236328 138.9527282714844 159.2654418945313 142.6085510253906 156.3456878662109 C 147.5128631591797 152.4290771484375 151.9911956787109 147.9757995605469 155.9191436767578 143.1095581054688 C 159.8677215576172 138.2177734375 163.2718658447266 132.893798828125 166.0370025634766 127.2855224609375 C 168.8491973876953 121.5817489624023 171.0132446289063 115.5564727783203 172.4690551757813 109.3770294189453 C 173.9657287597656 103.0241088867188 174.724609375 96.45841217041016 174.724609375 89.8623046875 C 174.724609375 84.10124969482422 174.14453125 78.34527587890625 173.0004425048828 72.75430297851563 C 171.8859405517578 67.30796813964844 170.2229919433594 61.9508056640625 168.0577545166016 56.83161163330078 C 165.9313659667969 51.80422210693359 163.2992248535156 46.95494079589844 160.2344207763672 42.41847229003906 C 157.1978607177734 37.92378234863281 153.71044921875 33.697021484375 149.8690032958984 29.85557556152344 C 146.027587890625 26.01416015625 141.8008117675781 22.52671813964844 137.3061370849609 19.49018859863281 C 132.7696380615234 16.42538452148438 127.9203643798828 13.79324340820313 122.8929977416992 11.66685485839844 C 117.7738037109375 9.501617431640625 112.4166412353516 7.838668823242188 106.9703063964844 6.724166870117188 C 101.3793334960938 5.580078125 95.62335968017578 5 89.8623046875 5 M 89.8623046875 0 C 139.4918518066406 0 179.724609375 40.23272705078125 179.724609375 89.8623046875 C 179.724609375 118.3000564575195 166.5150604248047 143.6525268554688 145.7287292480469 160.252685546875 C 141.9145202636719 163.2989196777344 137.8305053710938 166.0426635742188 133.3282165527344 168.5488891601563 C 120.6464996337891 175.6093292236328 105.7349700927734 179.724609375 89.8623046875 179.724609375 C 40.23272705078125 179.724609375 0 139.4918518066406 0 89.8623046875 C 0 40.23272705078125 40.23272705078125 0 89.8623046875 0 Z" stroke="none" fill="#000"/>
      </g>
    </g>
    <text id="C" transform="translate(978 628.225)" fill="#fff" font-size="65" font-family="Montserrat-Medium, Montserrat" font-weight="500"><tspan x="-23.497" y="0">C</tspan></text>
  </g>
</svg>
